<svg width="400" height="240" viewBox="0 0 400 240" fill="none" xmlns="http://www.w3.org/2000/svg">
  <rect width="400" height="240" fill="#f0f9f4"/>
  <rect x="30" y="30" width="340" height="180" rx="12" fill="#389169" fill-opacity="0.05" stroke="#389169" stroke-width="1"/>
  
  <!-- Modern dashboard layout -->
  <rect x="50" y="50" width="300" height="140" rx="8" fill="#dbf0e3"/>
  
  <!-- Header bar -->
  <rect x="50" y="50" width="300" height="30" rx="8" fill="#389169"/>
  <circle cx="65" cy="65" r="5" fill="#f0f9f4"/>
  <rect x="80" y="60" width="60" height="10" rx="5" fill="#f0f9f4"/>
  <rect x="320" y="60" width="20" height="10" rx="5" fill="#f0f9f4"/>
  
  <!-- Sidebar -->
  <rect x="50" y="80" width="60" height="110" fill="#b9e1ca"/>
  <rect x="55" y="90" width="50" height="8" rx="4" fill="#389169"/>
  <rect x="55" y="105" width="40" height="6" rx="3" fill="#53a87f"/>
  <rect x="55" y="118" width="45" height="6" rx="3" fill="#53a87f"/>
  <rect x="55" y="131" width="35" height="6" rx="3" fill="#53a87f"/>
  
  <!-- Main content area with charts -->
  <rect x="120" y="90" width="220" height="90" fill="#f0f9f4"/>
  
  <!-- Chart 1 -->
  <rect x="130" y="100" width="90" height="60" fill="#dbf0e3" stroke="#389169" stroke-width="1"/>
  <rect x="140" y="140" width="8" height="15" fill="#389169"/>
  <rect x="152" y="130" width="8" height="25" fill="#53a87f"/>
  <rect x="164" y="120" width="8" height="35" fill="#8bcaaa"/>
  <rect x="176" y="135" width="8" height="20" fill="#389169"/>
  <rect x="188" y="110" width="8" height="45" fill="#53a87f"/>
  <rect x="200" y="125" width="8" height="30" fill="#8bcaaa"/>
  
  <!-- Chart 2 -->
  <circle cx="285" cy="130" r="25" fill="none" stroke="#389169" stroke-width="2"/>
  <path d="M260 130 A25 25 0 0 1 285 105" fill="#389169"/>
  <path d="M285 105 A25 25 0 0 1 305 140" fill="#53a87f"/>
  <path d="M305 140 A25 25 0 0 1 260 130" fill="#8bcaaa"/>
  
  <!-- Mobile responsive indicator -->
  <rect x="250" y="165" width="30" height="20" rx="3" fill="none" stroke="#389169" stroke-width="1"/>
  <rect x="255" y="170" width="20" height="10" rx="1" fill="#389169" fill-opacity="0.3"/>
  
  <!-- Text */
  <text x="200" y="25" text-anchor="middle" font-family="Arial, sans-serif" font-size="16" font-weight="bold" fill="#389169">Portfolio Dashboard</text>
  <text x="200" y="215" text-anchor="middle" font-family="Arial, sans-serif" font-size="11" fill="#277453">Next.js • TypeScript • Tailwind CSS</text>
</svg>
