<svg width="400" height="240" viewBox="0 0 400 240" fill="none" xmlns="http://www.w3.org/2000/svg">
  <rect width="400" height="240" fill="#f0f9f4"/>
  <rect x="50" y="50" width="300" height="140" rx="8" fill="#389169" fill-opacity="0.1" stroke="#389169" stroke-width="2"/>
  
  <!-- Database cylinder -->
  <ellipse cx="150" cy="100" rx="25" ry="8" fill="#389169"/>
  <rect x="125" y="100" width="50" height="40" fill="#389169"/>
  <ellipse cx="150" cy="140" rx="25" ry="8" fill="#53a87f"/>
  <ellipse cx="150" cy="120" rx="25" ry="8" fill="none" stroke="#277453" stroke-width="1"/>
  
  <!-- Data flow arrows -->
  <path d="M180 120 L220 120 L215 115 M220 120 L215 125" stroke="#53a87f" stroke-width="2" fill="none"/>
  
  <!-- Analytics chart -->
  <rect x="230" y="90" width="80" height="60" fill="#dbf0e3" stroke="#389169" stroke-width="1"/>
  <polyline points="240,140 250,130 260,125 270,115 280,120 290,110 300,105" fill="none" stroke="#389169" stroke-width="2"/>
  <circle cx="250" cy="130" r="2" fill="#389169"/>
  <circle cx="270" cy="115" r="2" fill="#389169"/>
  <circle cx="290" cy="110" r="2" fill="#389169"/>
  
  <!-- Value indicators -->
  <rect x="240" y="160" width="15" height="6" fill="#389169"/>
  <rect x="260" y="160" width="15" height="6" fill="#53a87f"/>
  <rect x="280" y="160" width="15" height="6" fill="#8bcaaa"/>
  
  <!-- Dollar sign -->
  <circle cx="320" cy="110" r="12" fill="none" stroke="#389169" stroke-width="2"/>
  <text x="320" y="115" text-anchor="middle" font-family="Arial, sans-serif" font-size="14" font-weight="bold" fill="#389169">$</text>
  
  <!-- Text -->
  <text x="200" y="35" text-anchor="middle" font-family="Arial, sans-serif" font-size="18" font-weight="bold" fill="#389169">Unlocking Data Value</text>
  <text x="200" y="210" text-anchor="middle" font-family="Arial, sans-serif" font-size="12" fill="#277453">Data Science • Analytics • Business Intelligence</text>
</svg>
